<?xml version="1.0" encoding="utf-8"?>
<!-- Generator: Adobe Illustrator 16.0.0, SVG Export Plug-In . SVG Version: 6.00 Build 0)  -->
<!DOCTYPE svg PUBLIC "-//W3C//DTD SVG 1.1//EN" "http://www.w3.org/Graphics/SVG/1.1/DTD/svg11.dtd">
<svg version="1.1" id="Layer_1" xmlns="http://www.w3.org/2000/svg" xmlns:xlink="http://www.w3.org/1999/xlink" x="0px" y="0px"
	 width="1332.28px" height="898.58px" viewBox="0 0 1332.28 898.58" enable-background="new 0 0 1332.28 898.58"
	 xml:space="preserve">
<g>
	<g>
		<path fill-rule="evenodd" clip-rule="evenodd" fill="#F58220" d="M347.826,589.748c0.469-9.44,4.835-17.415,9.806-25.055
			c9.565-14.729,20.971-28.081,33.854-39.84c12.527-11.425,16.621-25.305,16.293-41.287c-0.106-4.388,0.282-6.245,5.535-4.793
			c21.617,5.887,40.599-0.265,57.981-13.353c2.097-1.593,2.104-3.182,2.079-5.34c-0.132-9.714,6.976-17.934,16.595-19.103
			c5.675-0.707,10.689,0.354,14.305,5.51c3.803,5.411,3.459,10.816,0.631,16.316c-3.732,7.216-12.037,11.51-20.153,9.992
			c-2.969-0.565-4.143,1.079-5.708,2.616c-8.42,8.365-16.395,17.273-27.525,22.278c-6.586,2.937-13.378,5.147-20.646,5.308
			c-2.74,0.052-4.986,0.867-7.319,2.3c-10.149,6.169-17.356,14.517-22.227,25.583c-9.664,22.071-19.894,43.926-34.236,63.48
			c-1.732,2.39-3.747,4.633-5.958,6.599c-4.73,4.209-8.17,3.502-11.3-2.106C348.259,596.045,347.755,592.948,347.826,589.748z"/>
		<path fill-rule="evenodd" clip-rule="evenodd" fill="#F58220" d="M322.488,529.081c-4.803,0.707-9.559,1.801-14.458,0.085
			c-6.834-2.404-10.866-7.391-13.331-13.861c-1.149-3.059,1.996-10.944,5.029-12.396c6.172-2.937,12.565-5.307,19.541-5.43
			c1.202-0.019,2.493,0.019,3.615,0.41c1.417,0.509,3.29,1.094,3.309,2.917c0.017,1.607-1.77,2.103-3.061,2.404
			c-4.746,1.093-9.549,2.013-14.323,3.04c-3.66,0.759-7.522,1.626-8.045,6.174c-0.495,4.364,2.77,6.452,6.021,8.343
			c5.545,3.237,11.132,3.379,17.057,0.886c15.207-6.382,23.686-24.843,18.105-39.981c-3.721-10.077-11.335-15.332-21.758-16.341
			c-19.788-1.941-46.089,14.663-53.942,32.7c-11.352,26.077,6.702,64.824,45.074,60.205c21.961-2.635,40.698-12.589,54.411-30.306
			c16.01-20.69,15.348-49.723-1.176-72.252c-3.29-4.478-7.171-8.583-10.769-12.824c-1.423-1.697-3.342-3.087-3.474-6.047
			c5.498,0.151,9.973,2.324,13.375,6.221c28.143,32.313,29.964,84.054-15.657,109.199c-13.14,7.216-27.232,11.438-42.494,11.829
			c-35.561,0.938-50.536-29.391-48.875-52.994c2.14-30.329,35.985-56.638,65.878-51.425c23.014,4.034,34.092,25.201,24.614,46.792
			c-2.812,6.382-7.03,11.58-12.052,16.265C330.003,526.178,329.393,526.8,322.488,529.081z"/>
		<path fill-rule="evenodd" clip-rule="evenodd" fill="#F58220" d="M422.263,347.136c-1.433,6.914-0.09,12.452,2.05,17.453
			c9.108,21.336,5.818,42.088-2.156,62.704c-4.359,11.264-10.204,21.803-16.286,32.224c-0.62,1.041-1.282,2.088-2.085,3.007
			c-2.406,2.738-5.217,5.18-9.038,3.077c-3.961-2.21-0.9-5.429-0.229-7.87c1.829-6.83,6.021-12.542,9.549-18.57
			c9.867-16.943,15.949-34.924,14.163-54.851c-0.797-8.757-4.543-16.816-6.879-25.22c-1.327-4.746-2.281-9.53-2.307-14.427
			c-0.061-7.8,6.233-12.174,13.8-9.779c5.358,1.696,8.771,5.75,11.38,10.345c13.934,24.527,16.383,50.341,8.797,77.399
			c-4.296,15.275-11.917,29.019-18.674,43.187c-0.582,1.272-1.414,2.422-2.297,3.482c-1.732,2.121-4.103,2.847-6.596,1.961
			c-2.29-0.811-2.512-3.13-2.67-5.251c-0.354-4.703,2.263-8.327,4.508-12.079c13.282-22.213,19.647-46.118,17.366-72.068
			C433.579,369.665,429.53,358.419,422.263,347.136z"/>
		<path fill-rule="evenodd" clip-rule="evenodd" fill="#F58220" d="M336.571,524.095c17.613-10.751,22.281-34.396,10.532-53.527
			c-9.648-15.704-25.72-22.444-43.775-17.17c-20.052,5.854-36.021,17.735-46.373,36.089c-12.82,22.722-8.17,46.792,11.875,65.465
			c1.556,1.447,5.093,2.828,3.924,4.737c-1.572,2.634-4.737,0.442-7.082-0.354c-9.08-3.06-12.563-11.194-16.312-18.849
			c-10.805-22.015-7.532-42.847,6.667-62.066c12.971-17.58,30.327-28.831,51.953-32.648c14.995-2.653,27.956,1.244,37.929,13.532
			c7.181,8.86,12.884,18.353,14.342,29.796c2.494,19.188-8.295,36.603-27.772,45.303c-7.399,3.309-15.084,5.392-23.313,5.307
			c-12.707-0.108-21.23-5.076-25.26-14.997c-4.183-10.346-1.619-20.69,7.345-29.442c9.513-9.3,23.466-11.882,35.403-6.453
			c5.587,2.546,9.857,6.523,10.131,12.924c0.275,6.264-4.473,9.497-9.354,12.15c-4.491,2.441-9.25,4.157-14.5,3.874
			c-1.202-0.057-2.653,0.155-3.184-1.239c-0.582-1.522,0.398-2.757,1.539-3.554c1.404-1.009,2.953-1.857,4.562-2.475
			c1.626-0.604,3.431-0.744,5.074-1.311c3.997-1.413,9.32-1.856,8.983-7.762c-0.335-5.713-5.321-6.952-9.804-7.801
			c-14.987-2.809-26.817,3.837-30.176,16.731c-3.697,14.145,6.7,25.781,21.209,23.73c5.022-0.744,9.806-2.28,14.51-4.156
			C329.039,528.586,332.452,527.559,336.571,524.095z"/>
		<path fill-rule="evenodd" clip-rule="evenodd" fill="#F58220" d="M483.94,404.155c1.184,12.447-6.914,29.546-13.529,46.989
			c-0.424,1.117-1.167,2.145-1.927,3.102c-1.813,2.211-4.261,3.29-7.002,2.493c-2.865-0.829-2.9-3.714-3.2-6.032
			c-0.318-2.494,0.354-5.043,1.742-7.032c13.96-20.22,13.765-42.772,10.282-65.564c-4.049-26.323-13.97-50.053-33.668-68.814
			c-3.023-2.875-6.525-5.269-9.938-7.692c-2.006-1.433-3.57-2.422-1.909-5.394c1.503-2.689,3.033-3.332,5.835-2.281
			c12.254,4.668,21.308,13.228,28.557,23.766C475.665,341.574,482.683,368.444,483.94,404.155z"/>
		<path fill-rule="evenodd" clip-rule="evenodd" fill="#F58220" d="M316.856,440.159c8.01-4.167,16.117-3.563,24.013-0.062
			c28.203,12.542,41.023,51.265,25.896,78.106c-6.137,10.878-15.589,18.249-26.516,23.82c-11.281,5.745-23.111,9.831-35.94,10.396
			c-12.565,0.547-21.883-4.562-28.178-15.473c-3.634-6.292-5.837-13.013-6.978-20.158c-2.483-15.384,4.704-25.885,16.887-33.863
			c11.469-7.494,23.75-11.915,37.693-8.399c4.614,1.169,8.858,3.271,11.731,7.357c1.564,2.211,1.266,3.662-1.768,3.412
			c-1.725-0.142-3.688-0.212-5.048-1.079c-11.971-7.603-23.572-4.279-34.854,1.291c-22.281,10.982-25.18,39.487-5.693,55.063
			c7.656,6.137,16.736,5.553,25.613,4.139c10.053-1.607,19.583-5.071,28.371-10.359c31.865-19.136,32.979-63.255,2.123-84.653
			C336.483,444.339,332.814,443.119,316.856,440.159z"/>
		<path fill-rule="evenodd" clip-rule="evenodd" fill="#F58220" d="M402.757,263.94c27.605,1.256,50.857,13.244,68.354,36.168
			c3.525,4.607,5.765,9.912,6.09,15.925c0.16,3.059-1.184,3.625-3.712,3.191c-5.623-0.938-8.7-5.048-11.148-9.523
			c-7.348-13.491-18.806-22.404-32.229-28.91c-14.606-7.091-29.724-8.656-45.196-2.564c-14.456,5.693-23.227,19.637-22.032,35.134
			c0.379,4.883,0.813,9.834-1.735,14.323c-1.201,2.133-2.934,4.723-5.392,4.459c-2.387-0.25-2.705-3.361-3.174-5.51
			C345.589,295.433,361.274,264.046,402.757,263.94z"/>
		<path fill-rule="evenodd" clip-rule="evenodd" fill="#F58220" d="M375.357,370.433c-0.264-10.901-2.66-23.118-3.987-35.428
			c-0.849-8.043-1.096-16.072,0.867-23.976c3.83-15.473,15.525-21.466,29.672-24.418c3.784-0.787,7.611-1.461,11.37,0.071
			c2.599,1.042,4.668,3.014,4.694,5.79c0.009,2.432-2.802,2.927-4.678,3.519c-4.986,1.555-10.114,2.724-15.153,4.183
			c-10.22,2.934-16.039,10.265-16.871,20.9c-0.813,10.274,1.734,20.177,3.485,30.112c5.013,28.623-0.78,55.224-14.13,80.538
			c-1.362,2.573-2.387,6.5-6.596,5.128c-2.969-0.947-4.527-7.225-3.004-10.67c2.182-4.954,4.685-9.78,6.683-14.785
			C372.706,398.735,375.209,385.581,375.357,370.433z"/>
		<path fill-rule="evenodd" clip-rule="evenodd" fill="#F58220" d="M389.779,338.718c0.396-2.988,0.682-6.665,1.396-10.237
			c3.299-16.675,17.844-24.357,32.839-16.515c20.299,10.619,31.669,28.312,36.938,50.237c0.273,1.164,0.354,2.456,0.158,3.653
			c-0.44,2.87-0.299,6.655-3.811,7.3c-3.589,0.646-6.391-1.899-7.628-5.217c-1.452-3.898-2.274-8.036-3.45-12.065
			c-4.19-14.309-13.138-24.916-26.012-32.035c-9.434-5.234-16.232-1.671-18.353,9.011c-0.973,4.907-0.53,9.709,0.688,14.517
			c0.69,2.706,1.522,5.43,1.645,8.187c0.161,3.394-1.529,6.377-4.88,7.287c-2.988,0.811-3.978-2.229-5.198-4.228
			C390.496,352.726,390.381,346.023,389.779,338.718z"/>
		<path fill-rule="evenodd" clip-rule="evenodd" fill="#F58220" d="M356.986,257.61c3.351,0.071,5.279,1.671,4.369,5.569
			c-0.646,2.785-1.85,5.305-4.147,7.091c-10.416,8.135-14.066,19.592-15.746,31.988c-1.831,13.423-0.415,26.825,0.575,40.231
			c0.653,9.049,1.555,18.122-0.549,27.096c-1.291,5.472-3.978,10.081-9.372,12.494c-3.801,1.716-6.011,0.387-6.268-3.785
			c-0.08-1.333,0.08-2.969,0.771-4.048c7.39-11.406,5.498-23.778,3.676-36.065c-2.175-14.596-2.812-29.096-0.335-43.756
			c2.263-13.404,9.106-23.978,18.822-32.978C351.424,258.989,354.502,257.688,356.986,257.61z"/>
		<path fill-rule="evenodd" clip-rule="evenodd" fill="#F58220" d="M382.988,524.462c2.74-8.097,5.092-16.034,5.597-24.471
			c0.912-15.242-1.918-29.636-9.787-42.757c-3.483-5.821-3.148-10.859,0.087-16.59c7.287-12.938,14.448-25.979,16.499-41.032
			c1.008-7.277,1.821-14.564,0.777-21.912c-0.511-3.605,0.215-5.896,4.359-6.744c4.501-0.938,4.369,2.667,5.253,4.897
			c5.003,12.688,2.183,25.111-1.866,37.375c-3.226,9.822-7.461,19.253-13.244,27.812c-4.642,6.853-4.616,13.79-1.661,20.917
			c5.745,13.913,6.876,28.415,6.047,43.182C394.545,513.73,388.276,518.787,382.988,524.462z"/>
		<path fill-rule="evenodd" clip-rule="evenodd" fill="#F58220" d="M407.091,216.735c4.598,0.681,10.079,0.087,15.384,1.423
			c2.934,0.707,5.542,2.22,5.854,5.27c0.354,3.36-3.094,3.862-5.342,4.72c-5.215,1.998-10.75,1.388-16.081,0.709
			c-26.639-3.36-47.082,8.151-64.647,26.629c-3.846,4.067-7.155,8.682-12.601,10.821c-4.296,1.699-5.851,0.584-5.632-4.013
			c0.222-4.598,2.645-8.286,5.439-11.679c11.846-14.42,27.548-22.856,44.914-28.637
			C384.723,218.529,395.419,216.983,407.091,216.735z"/>
		<path fill-rule="evenodd" clip-rule="evenodd" fill="#F58220" d="M519.181,365.951c0,1.399,0.038,1.753,0,2.106
			c-0.335,3.361,0.259,7.937-4.171,8.399c-4.332,0.448-6.811-3.191-7.551-7.315c-1.635-8.912-2.361-17.929-4.651-26.78
			c-4.624-18.018-14.234-33.277-24.386-48.371c-2.635-3.917-4.846-8.081-7.214-12.155c-1.468-2.538-2.688-5.031,0.858-7.056
			c3.174-1.821,5.526-0.796,7.685,1.784c6.292,7.524,11.934,15.499,16.868,23.971c11.015,18.893,18.051,39.282,22.118,60.722
			C519.086,363.132,519.11,365.069,519.181,365.951z"/>
		<path fill-rule="evenodd" clip-rule="evenodd" fill="#F58220" d="M401.042,240.094c21.893,0.203,38.992,4.334,54.587,13.916
			c4.482,2.769,8.7,5.828,10.84,10.972c1.449,3.466,0.707,5.201-3.368,5.278c-5.979,0.116-10.991-2.422-15.357-5.879
			c-13.404-10.645-29.142-12.73-45.393-13.189c-6.939-0.196-13.458,1.793-19.858,4.216c-3.13,1.176-6.285,2.06-9.671,1.999
			c-5.481-0.087-7.11-2.899-4.315-7.753c2.368-4.138,6.497-5.712,10.803-6.702C387.656,241.032,396.126,239.855,401.042,240.094z"/>
		<path fill-rule="evenodd" clip-rule="evenodd" fill="#F58220" d="M506.997,280.792c-0.019,5.851-2.635,7.444-7.216,4.633
			c-3.836-2.336-6.551-5.871-8.483-9.771c-5.981-12.122-15.176-21.035-26.172-28.656c-6.782-4.72-13.314-9.292-21.652-10.857
			c-3.53-0.655-6.393-2.882-7.383-6.683c-1.159-4.475,2.156-7.852,6.525-6.313c26.311,9.16,47.414,24.916,61.694,49.158
			C505.928,275.044,506.767,278.086,506.997,280.792z"/>
		<path fill-rule="evenodd" clip-rule="evenodd" fill="#F58220" d="M490.393,388.116c1.857-13.272-1.678-26.408-7.772-39.072
			c-2.271-4.718-4.341-9.582-4.854-14.832c-0.255-2.512-1.579-5.741,2.21-7.18c3.501-1.336,4.694,1.75,6.127,3.589
			c6.995,9.016,10.444,19.592,12.938,30.555c3.323,14.563,4.473,29.264,3.29,44.157c-0.108,1.216-0.269,2.437-0.584,3.615
			c-0.867,3.209-2.635,6.339-6.066,6.339c-2.956,0-3.342-3.582-4.086-5.962C489.563,402.68,490.784,395.799,490.393,388.116z"/>
		<path fill-rule="evenodd" clip-rule="evenodd" fill="#F58220" d="M463.78,400.055c0.267,22.26-6.966,42.569-16.107,62.378
			c-0.071,0.18-0.161,0.32-0.248,0.462c-2.371,3.568-5.271,8.026-9.789,5.905c-4.296-2.017-2.802-7.074-1.228-10.807
			c3.907-9.341,8.09-18.542,11.095-28.241c4.121-13.3,5.384-27.011,5.915-40.839c0.125-3.102,0.302-6.32,4.228-6.551
			c4.013-0.241,5.815,2.017,5.674,6.179C463.198,392.377,463.613,396.213,463.78,400.055z"/>
		<path fill-rule="evenodd" clip-rule="evenodd" fill="#F58220" d="M406.737,204.526c-6.464,0.466-13.281,0.742-20.017,1.536
			c-4.456,0.549-5.307-2.182-6.084-5.375c-0.9-3.785,1.786-4.367,4.421-4.951c25.092-5.578,49.193-2.104,72.413,8.398
			c4.189,1.902,7.673,4.97,8.521,9.931c0.674,3.811-1.042,5.755-4.932,5.208c-1.838-0.283-3.936-0.745-5.35-1.885
			C441.306,206.021,424.207,205.375,406.737,204.526z"/>
		<path fill-rule="evenodd" clip-rule="evenodd" fill="#F58220" d="M305.865,332.176c1.803-13.022-0.592-28.043,3.084-42.659
			c1.168-4.633,2.901-8.964,5.111-13.147c1.645-3.148,4.103-3.942,7.463-3.042c3.554,0.974,3.235,3.617,2.953,6.243
			c-0.177,1.565-0.398,3.184-0.973,4.617c-7.975,19.653-7.021,40.014-4.845,60.474c0.196,1.885,0.283,3.827,0.08,5.703
			c-0.257,2.239-0.398,5.17-2.734,5.825c-2.757,0.759-4.923-1.546-6.461-3.643C305.45,346.961,305.865,340.349,305.865,332.176z"/>
		<path fill-rule="evenodd" clip-rule="evenodd" fill="#F58220" d="M364.475,365.484c-0.514,13.625-2.3,26.709-8.639,38.751
			c-2.837,5.368-6.552,9.902-12.881,11.429c-3.413,0.825-4.864-0.316-4.669-3.95c0.248-4.458,2.413-8.026,5.093-11.227
			c6.118-7.348,8.611-15.846,8.7-25.182c0.087-9.092,0.37-18.179-0.07-27.232c-0.257-5.189,3.059-5.661,6.436-6.349
			c3.98-0.796,3.325,2.898,3.801,4.821C363.829,352.815,364.314,359.267,364.475,365.484z"/>
		<path fill-rule="evenodd" clip-rule="evenodd" fill="#F58220" d="M366.172,199.627c3.855-0.116,6.277,0.671,7.515,3.405
			c1.24,2.802-0.662,4.659-2.368,6.391c-2.512,2.574-5.783,3.855-9.115,4.899c-14.705,4.588-26.002,13.845-35.586,25.524
			c-2.194,2.68-4.051,5.738-7.48,7.136c-2.203,0.893-4.633,1.186-6.49-0.373c-1.645-1.362-0.848-3.589-0.488-5.427
			c0.771-3.91,3.097-7.039,5.597-9.938c11.972-13.944,27.232-23.236,43.837-30.503C363.325,200.006,365.288,199.839,366.172,199.627
			z"/>
		<path fill-rule="evenodd" clip-rule="evenodd" fill="#F58220" d="M508.642,436.893c2.21-3.889,5.297-5.062,7.55-7.107
			c11.67-10.458,19.998-22.359,17.735-39.114c-0.354-2.526,0.976-4.383,3.398-4.242c2.847,0.141,5.42,1.343,5.816,4.854
			c0.745,6.391-0.108,12.617-3.04,18.32c-6.278,12.245-16.421,20.554-28.42,26.851C511.145,436.737,510.429,436.647,508.642,436.893
			z"/>
		<path fill-rule="evenodd" clip-rule="evenodd" fill="#F58220" d="M520.613,442.237c1.112-2.706,3.352-2.399,5.024-3.045
			c14.116-5.491,25.672-13.475,29.061-29.504c0.486-2.263,1.81-3.615,4.006-2.998c2.281,0.622,4.181,2.3,3.907,4.901
			c-0.25,2.395-0.929,4.836-1.904,7.037C555.095,431.34,535.116,443.146,520.613,442.237z"/>
	</g>
	<g>
		<path fill="#00988A" d="M499.202,527.894v4.317c6.726-8.296,13.71-14.395,20.959-18.287c7.263-3.87,15.464-5.816,24.635-5.816
			c11.005,0,21.138,2.828,30.405,8.521c9.266,5.68,16.576,13.97,21.963,24.881c5.358,10.93,8.045,23.853,8.045,38.798
			c0,11.015-1.555,21.129-4.651,30.324c-3.102,9.233-7.357,16.958-12.768,23.203c-5.429,6.24-11.83,11.048-19.201,14.427
			c-7.385,3.36-15.313,5.038-23.792,5.038c-10.213,0-18.805-2.05-25.738-6.15c-6.952-4.124-13.564-10.152-19.856-18.089v53.734
			c0,15.704-5.731,23.575-17.169,23.575c-6.721,0-11.178-2.036-13.372-6.085c-2.182-4.067-3.271-9.992-3.271-17.754V528.162
			c0-6.829,1.487-11.92,4.457-15.28c2.971-3.36,7.039-5.038,12.186-5.038c5.057,0,9.195,1.716,12.376,5.18
			C497.59,516.474,499.202,521.422,499.202,527.894z M569.314,579.917c0-9.44-1.442-17.542-4.336-24.315
			c-2.879-6.754-6.867-11.971-11.985-15.596c-5.114-3.624-10.76-5.425-16.977-5.425c-9.869,0-18.197,3.889-24.951,11.651
			c-6.772,7.781-10.166,19.22-10.166,34.34c0,14.233,3.36,25.305,10.096,33.228c6.721,7.903,15.067,11.844,25.021,11.844
			c5.943,0,11.448-1.711,16.515-5.161c5.067-3.464,9.134-8.648,12.183-15.544C567.782,598.043,569.314,589.696,569.314,579.917z"/>
		<path fill="#00988A" d="M726.811,633.109v-4.581c-4.28,5.429-8.776,9.954-13.489,13.635c-4.723,3.657-9.869,6.4-15.469,8.187
			c-5.59,1.786-11.962,2.687-19.135,2.687c-8.635,0-16.404-1.786-23.252-5.378c-6.862-3.567-12.169-8.521-15.917-14.817
			c-4.463-7.584-6.683-18.514-6.683-32.747v-70.909c0-7.145,1.607-12.499,4.845-16.02c3.233-3.554,7.503-5.321,12.834-5.321
			c5.415,0,9.789,1.786,13.109,5.373c3.318,3.572,4.986,8.912,4.986,15.968v57.293c0,8.276,0.688,15.261,2.083,20.884
			c1.405,5.642,3.922,10.044,7.551,13.244c3.61,3.181,8.54,4.793,14.733,4.793c6.023,0,11.697-1.806,17.023-5.378
			c5.345-3.587,9.21-8.271,11.66-14.021c2.027-5.076,3.017-16.18,3.017-33.298v-43.517c0-7.056,1.678-12.396,4.986-15.968
			c3.327-3.587,7.645-5.373,12.98-5.373c5.345,0,9.604,1.768,12.857,5.321c3.233,3.521,4.826,8.875,4.826,16.02v103.656
			c0,6.829-1.537,11.938-4.647,15.351c-3.092,3.412-7.098,5.108-11.99,5.108c-4.883,0-8.936-1.768-12.122-5.302
			C728.403,644.444,726.811,639.49,726.811,633.109z"/>
		<path fill="#00988A" d="M829.019,527.894v4.317c6.749-8.296,13.716-14.395,20.974-18.287c7.249-3.87,15.469-5.816,24.631-5.816
			c11.02,0,21.152,2.828,30.418,8.521c9.257,5.68,16.563,13.97,21.945,24.881c5.372,10.93,8.059,23.853,8.059,38.798
			c0,11.015-1.564,21.129-4.646,30.324c-3.111,9.233-7.381,16.958-12.801,23.203c-5.401,6.24-11.802,11.048-19.183,14.427
			c-7.381,3.36-15.299,5.038-23.792,5.038c-10.209,0-18.796-2.05-25.733-6.15c-6.957-4.124-13.564-10.152-19.871-18.089v53.734
			c0,15.704-5.712,23.575-17.155,23.575c-6.73,0-11.18-2.036-13.367-6.085c-2.168-4.067-3.289-9.992-3.289-17.754V528.162
			c0-6.829,1.508-11.92,4.459-15.28c2.969-3.36,7.041-5.038,12.197-5.038c5.062,0,9.19,1.716,12.386,5.18
			C827.444,516.474,829.019,521.422,829.019,527.894z M899.131,579.917c0-9.44-1.433-17.542-4.326-24.315
			c-2.865-6.754-6.881-11.971-11.99-15.596c-5.118-3.624-10.774-5.425-16.958-5.425c-9.879,0-18.202,3.889-24.97,11.651
			c-6.769,7.781-10.152,19.22-10.152,34.34c0,14.233,3.355,25.305,10.076,33.228c6.74,7.903,15.082,11.844,25.046,11.844
			c5.938,0,11.435-1.711,16.524-5.161c5.043-3.464,9.125-8.648,12.16-15.544C897.613,598.043,899.131,589.696,899.131,579.917z"/>
		<path fill="#00988A" d="M1054.155,633.109c-8.644,6.734-17.005,11.773-25.093,15.152c-8.088,3.36-17.137,5.038-27.204,5.038
			c-9.153,0-17.231-1.819-24.169-5.43c-6.938-3.624-12.282-8.554-16.053-14.761c-3.752-6.188-5.628-12.929-5.628-20.158
			c0-9.799,3.102-18.146,9.304-25.041c6.193-6.896,14.715-11.528,25.555-13.899c2.263-0.514,7.908-1.696,16.901-3.534
			c9.012-1.824,16.703-3.521,23.122-5.043c6.43-1.518,13.396-3.375,20.898-5.566c-0.434-9.445-2.318-16.359-5.693-20.78
			c-3.365-4.402-10.331-6.612-20.907-6.612c-9.077,0-15.921,1.272-20.502,3.804c-4.581,2.545-8.513,6.329-11.792,11.405
			c-3.281,5.058-5.6,8.398-6.938,10.025c-1.366,1.606-4.261,2.422-8.719,2.422c-4.016,0-7.484-1.291-10.416-3.874
			c-2.923-2.563-4.384-5.868-4.384-9.902c0-6.277,2.216-12.396,6.665-18.334c4.458-5.943,11.415-10.84,20.851-14.677
			c9.436-3.841,21.181-5.764,35.235-5.764c15.741,0,28.081,1.852,37.092,5.585c8.993,3.695,15.355,9.567,19.069,17.612
			c3.714,8.046,5.571,18.692,5.571,31.988c0,8.366-0.028,15.492-0.066,21.341c-0.047,5.854-0.104,12.382-0.198,19.522
			c0,6.739,1.113,13.743,3.347,21.024c2.225,7.306,3.337,12.01,3.337,14.098c0,3.657-1.734,7.018-5.175,10.024
			c-3.45,3.021-7.362,4.524-11.727,4.524c-3.676,0-7.296-1.729-10.878-5.161C1061.97,644.67,1058.189,639.67,1054.155,633.109z
			 M1051.789,581.35c-5.222,1.928-12.857,3.964-22.858,6.099c-10.011,2.14-16.92,3.714-20.767,4.723
			c-3.846,1.009-7.512,2.974-11.01,5.892c-3.487,2.932-5.24,7.018-5.24,12.254c0,5.425,2.055,10.024,6.174,13.828
			c4.101,3.799,9.474,5.693,16.109,5.693c7.07,0,13.602-1.541,19.578-4.651c5.977-3.097,10.369-7.094,13.169-11.972
			c3.224-5.43,4.845-14.342,4.845-26.737V581.35z"/>
	</g>
</g>
</svg>
